<?xml version="1.0" encoding="UTF-8"?>
<svg width="48" height="48" enable-background="new 0 0 50 50" version="1.1" viewBox="0 0 48 48" xmlns="http://www.w3.org/2000/svg"><path d="m1 24v-17.2h46v34.5h-46zm40.5 14.4c0.155-0.033 0.282-0.106 0.282-0.163 0-0.126-0.868-1.08-3.19-3.52-2.29-2.4-8.44-8.59-8.53-8.59-0.103 0-0.918 0.701-2.15 1.85-0.597 0.556-1.29 1.11-1.56 1.26-0.666 0.355-1.46 0.48-2.74 0.429-0.962-0.0379-1.09-0.0641-1.59-0.314-0.635-0.322-1.19-0.761-2.55-2.01-0.551-0.508-1.11-0.994-1.24-1.08-0.231-0.151-0.242-0.15-0.518 0.0655-0.51 0.398-2.35 2.22-5.89 5.83-4.65 4.75-5.89 6.1-5.7 6.22 0.227 0.136 34.7 0.163 35.4 0.0273zm-36.1-3.64c1.31-1.25 7.83-7.92 9.51-9.72 0.484-0.522 0.881-1.01 0.881-1.09 0-0.23-0.588-0.881-3.76-4.16-3.37-3.48-7.81-7.82-8-7.82-0.0769 0-0.147 0.151-0.192 0.412-0.0917 0.537-0.0912 22.7 4.3e-4 23.2 0.0385 0.227 0.11 0.412 0.159 0.412 0.0491 0 0.681-0.564 1.41-1.25zm38.6 1.1c0.0902-0.191 0.157-19.5 0.0758-21.8-0.0331-0.912-0.0923-1.71-0.131-1.77-0.101-0.164-0.267-9e-3 -4.89 4.59-4.37 4.35-6.82 6.89-6.82 7.08 0 0.194 0.578 0.866 2.39 2.78 2.42 2.55 9.09 9.25 9.21 9.24 0.0546-5.8e-4 0.132-0.0693 0.171-0.153zm-18.8-9.19c0.824-0.567 3.16-2.84 8.41-8.16 5.57-5.65 8.46-8.63 8.46-8.73 0-0.0349-0.146-0.0946-0.325-0.133-0.425-0.0902-34.8-0.0902-35.2 0-0.179 0.038-0.325 0.105-0.325 0.148 0 0.127 1.06 1.24 5.72 6.02 2.42 2.48 5.89 5.96 7.72 7.75 3.66 3.57 3.63 3.54 4.61 3.47 0.362-0.029 0.576-0.111 0.935-0.358z" fill-rule="evenodd" style="paint-order:markers stroke fill"/></svg>
