<?xml version="1.0" encoding="UTF-8"?>
<svg width="48" height="48" enable-background="new 0 0 50 50" version="1.1" viewBox="0 0 48 48" xmlns="http://www.w3.org/2000/svg"><path d="m13.1 3.76c-2.05 0-4.69 1.51-7.02 4.46-2.33 2.95-4.2 7.41-4.2 13.5 0 2.83 0.904 6.07 2.59 8.68 0.428 0.666 0.929 1.27 1.47 1.84-2.09 2.66-3.8 4.69-3.8 4.69a0.92 0.92 0 1 0 1.32 1.24s1.73-2.04 3.85-4.74c1.33 0.983 2.85 1.64 4.6 1.64 2.86 0 5.56-1.41 7.91-3.39 0.428-0.363 0.773-0.836 1.18-1.24 0.719 0.553 1.55 0.949 2.5 0.949 1.46 0 2.74-0.726 3.85-1.67 1.11-0.941 2.11-2.13 2.99-3.31s1.66-2.31 2.3-3.13c0.278-0.354 0.521-0.586 0.719-0.776 0.0595 0.571 0.028 1.48-0.0288 2.39s-0.147 1.83-0.144 2.59c0.0015 0.38 0.0245 0.714 0.115 1.06 0.0452 0.175 0.088 0.362 0.259 0.575 0.171 0.213 0.549 0.431 0.891 0.431 1.12 0 1.98-0.65 2.73-1.41s1.48-1.69 2.24-2.59c1.53-1.79 3.18-3.36 5.69-3.36a0.92 0.92 0 1 0 0-1.84c-3.29 0-5.48 2.1-7.1 4-0.81 0.946-1.51 1.85-2.13 2.47-0.367 0.37-0.593 0.383-0.862 0.518 0.0054-0.616 0.0889-1.45 0.144-2.33 0.0582-0.931 0.0843-1.86 0-2.67-0.0421-0.405-0.0905-0.797-0.288-1.18-0.197-0.382-0.709-0.805-1.26-0.805-0.613 0-1.02 0.314-1.38 0.632-0.362 0.319-0.709 0.697-1.06 1.15-0.709 0.906-1.48 2.06-2.33 3.19s-1.75 2.24-2.67 3.02c-0.927 0.784-1.83 1.21-2.67 1.21-0.463 0-0.884-0.12-1.27-0.374 1.3-1.48 2.5-3.05 3.45-4.69 1.51-2.61 2.49-5.19 2.73-7.3 0.12-1.05 0.0824-2.03-0.345-2.85-0.427-0.814-1.35-1.35-2.36-1.35-2.02 0-3.88 1.32-5.2 3.28-1.32 1.95-2.16 4.61-2.16 7.59 0 1.94 0.414 3.72 1.26 5.12 0.0363 0.0596 0.106 0.0856 0.144 0.144-0.386 0.384-0.746 0.837-1.15 1.18-2.13 1.81-4.45 2.93-6.7 2.93-1.29 0-2.44-0.506-3.48-1.26 0.853-1.13 1.59-1.98 2.5-3.34 3.72-5.55 7.5-12.7 7.5-19.1 0-0.732-0.0739-2.07-0.805-3.34-0.731-1.27-2.25-2.36-4.54-2.36zm0 1.84c1.76 0 2.47 0.633 2.93 1.44 0.465 0.805 0.575 1.86 0.575 2.41 0 5.75-3.58 12.7-7.22 18.1-0.819 1.22-1.46 1.98-2.24 3.02-0.369-0.418-0.802-0.71-1.12-1.21-1.47-2.28-2.3-5.26-2.3-7.68 0-5.7 1.76-9.74 3.82-12.4 2.07-2.62 4.56-3.74 5.55-3.74zm12.6 9.2c0.488 0 0.565 0.0805 0.719 0.374s0.268 0.911 0.172 1.75c-0.192 1.69-1.12 4.16-2.53 6.61-0.836 1.45-1.86 2.85-2.99 4.17-0.539-1.01-0.891-2.36-0.891-3.88 0-2.63 0.749-4.94 1.84-6.56 1.09-1.61 2.48-2.47 3.68-2.47zm-24.8 27.6v1.84h46v-1.84z" enable-background="accumulate" overflow="visible" stroke-width=".92" style="text-indent:0;text-transform:none"/></svg>
